<svg width="54" height="54" viewBox="0 0 54 54" fill="none" xmlns="http://www.w3.org/2000/svg">
<circle cx="27" cy="27" r="26" transform="rotate(-180 27 27)" stroke="#18DDE9" stroke-width="2"/>
<path d="M26.2068 28.8312C26.411 29.1007 26.6861 29.249 26.9814 29.249C27.2767 29.249 27.5518 29.1007 27.7561 28.8314L33.3492 21.4591C33.5583 21.1835 33.6161 20.9165 33.5122 20.7073C33.4082 20.4982 33.1607 20.3828 32.8151 20.3828H30.6734C30.0936 20.3828 29.6219 19.9113 29.6219 19.3316V13.2502C29.6219 12.561 29.0611 12 28.3718 12H25.5909C24.9017 12 24.341 12.561 24.341 13.2502V19.3316C24.341 19.9113 23.8693 20.3829 23.2895 20.3829H21.1479C20.8022 20.3829 20.5546 20.4983 20.4507 20.7074C20.3468 20.9165 20.4046 21.1836 20.6136 21.4594L26.2068 28.8312Z" fill="#18DDE9"/>
<path d="M38.7939 27.8822V34.8306H15.169V27.8822H11V37.4117C11 38.2875 11.7125 39 12.5882 39H41.3747C42.2504 39 42.9629 38.2875 42.9629 37.4117V27.8822H38.7939Z" fill="#18DDE9"/>
</svg>
