<svg width="196" height="192" viewBox="0 0 196 192" fill="none" xmlns="http://www.w3.org/2000/svg">
<g filter="url(#filter0_d_75_9)">
<circle cx="100" cy="96" r="90.25" stroke="#18DDE9" stroke-width="1.5" shape-rendering="crispEdges"/>
</g>
<g filter="url(#filter1_d_75_9)">
<circle cx="100" cy="96" r="77.25" stroke="#18DDE9" stroke-width="1.5" shape-rendering="crispEdges"/>
</g>
<path fill-rule="evenodd" clip-rule="evenodd" d="M97 9.0959C98.3737 9.0322 99.7556 9 101.145 9C127.196 9 150.603 20.3196 166.715 38.3085L171.378 34.5223C154.161 15.1818 129.076 3 101.145 3C99.7562 3 98.3743 3.03012 97 3.08976V9.0959Z" fill="#18DDE9"/>
<path fill-rule="evenodd" clip-rule="evenodd" d="M186.524 108.854C186.311 110.212 186.066 111.573 185.788 112.934C180.568 138.456 164.787 159.12 143.934 171.301L146.709 176.628C169.108 163.636 186.069 141.5 191.666 114.136C191.944 112.775 192.192 111.416 192.409 110.057L186.524 108.854Z" fill="#18DDE9"/>
<path fill-rule="evenodd" clip-rule="evenodd" d="M13.7687 110.005C13.563 108.645 13.3878 107.274 13.2438 105.892C10.545 79.9814 19.3788 55.5278 35.6016 37.6381L31.3526 33.3924C13.8999 52.5205 4.38252 78.733 7.27612 106.513C7.42001 107.895 7.59314 109.266 7.79482 110.627L13.7687 110.005Z" fill="#18DDE9"/>
<defs>
<filter id="filter0_d_75_9" x="3.99998" y="0" width="192" height="192" filterUnits="userSpaceOnUse" color-interpolation-filters="sRGB">
<feFlood flood-opacity="0" result="BackgroundImageFix"/>
<feColorMatrix in="SourceAlpha" type="matrix" values="0 0 0 0 0 0 0 0 0 0 0 0 0 0 0 0 0 0 127 0" result="hardAlpha"/>
<feMorphology radius="1" operator="dilate" in="SourceAlpha" result="effect1_dropShadow_75_9"/>
<feOffset/>
<feGaussianBlur stdDeviation="2"/>
<feComposite in2="hardAlpha" operator="out"/>
<feColorMatrix type="matrix" values="0 0 0 0 1 0 0 0 0 1 0 0 0 0 1 0 0 0 0.5 0"/>
<feBlend mode="normal" in2="BackgroundImageFix" result="effect1_dropShadow_75_9"/>
<feBlend mode="normal" in="SourceGraphic" in2="effect1_dropShadow_75_9" result="shape"/>
</filter>
<filter id="filter1_d_75_9" x="17" y="13" width="166" height="166" filterUnits="userSpaceOnUse" color-interpolation-filters="sRGB">
<feFlood flood-opacity="0" result="BackgroundImageFix"/>
<feColorMatrix in="SourceAlpha" type="matrix" values="0 0 0 0 0 0 0 0 0 0 0 0 0 0 0 0 0 0 127 0" result="hardAlpha"/>
<feMorphology radius="1" operator="dilate" in="SourceAlpha" result="effect1_dropShadow_75_9"/>
<feOffset/>
<feGaussianBlur stdDeviation="2"/>
<feComposite in2="hardAlpha" operator="out"/>
<feColorMatrix type="matrix" values="0 0 0 0 1 0 0 0 0 1 0 0 0 0 1 0 0 0 0.5 0"/>
<feBlend mode="normal" in2="BackgroundImageFix" result="effect1_dropShadow_75_9"/>
<feBlend mode="normal" in="SourceGraphic" in2="effect1_dropShadow_75_9" result="shape"/>
</filter>
</defs>
</svg>
