<?xml version="1.0" encoding="UTF-8"?><svg id="_レイヤー_2" xmlns="http://www.w3.org/2000/svg" viewBox="0 0 700 864.27"><defs><style>.cls-1{fill:#18dde9;}.cls-1,.cls-2{stroke-width:0px;}.cls-2{fill:#fff;}</style></defs><g id="_レイヤー_5"><circle class="cls-1" cx="50" cy="50" r="50"/><circle class="cls-1" cx="650" cy="649.98" r="50"/><path class="cls-1" d="M570.78,129.93c5.76,5.76,10.62,11.49,14.67,17.17l64.23-96.28h-200.7l-74.75,112.28c63.57-21.3,116.39-113.33,196.55-33.17Z"/><path class="cls-1" d="M128.97,570.95c-5.81-5.81-10.67-11.59-14.69-17.34l-63.96,96.08h199.83l71.64-107.39c-50.52,27.21-119.32,102.15-192.82,28.65Z"/><path class="cls-1" d="M350,167.3c-75.12,0-130.85-127.09-220.44-37.5-89.97,89.97,37.51,169.01,37.51,220.48,0,47.52-109.5,122.38-52.8,203.33L374.23,163.1c-7.89,2.64-15.94,4.2-24.23,4.2Z"/><path class="cls-1" d="M585.45,147.1l-263.66,395.21c10.18-5.48,19.63-9.03,28.21-9.03,51.19,0,132.51,126.52,220.81,38.22,88.69-88.69-37.73-170.31-37.73-221.22,0-47.62,111.07-120.88,52.37-203.18Z"/><path class="cls-2" d="M86.21,864.27v-83.26h-14.56v-.97l7.86-16.69h6.7v-12.61c0-10.67,4.01-19.96,12.03-27.85,7.5-7.31,16.92-10.97,28.24-10.97h13.1v.97l-7.76,16.3h-5.34c-5.82,0-10.77,1.75-14.85,5.24-4.01,3.49-6.02,8.93-6.02,16.3v12.61h32.12v.97l-7.86,16.69h-24.26v74.53l-18.44,8.73h-.97ZM188.57,860.39v-141.68l18.44-8.73h.97v132.75h66.47v.97l-7.86,16.69h-78.02ZM388.1,817.4v6.11c0,10.67-4.01,19.96-12.03,27.85-7.5,7.31-16.92,10.97-28.24,10.97s-20.6-3.65-28.24-10.97c-8.02-7.76-12.03-17.05-12.03-27.85v-32.99c0-10.67,4.01-19.96,12.03-27.85,7.5-7.31,16.92-10.97,28.24-10.97s20.41,3.66,28.24,10.97c8.02,7.5,12.03,15.85,12.03,25.04v.19l-59.19,46.38c.97,2.2,2.33,4.04,4.08,5.53,4.08,3.49,9.02,5.24,14.85,5.24s10.74-1.75,14.75-5.24c4.08-3.49,6.11-8.05,6.11-13.68l18.44-8.73h.97ZM326.97,814.69l40.56-32.9c-1.04-3.17-2.65-5.69-4.85-7.57-4.08-3.49-9.02-5.24-14.85-5.24s-10.77,1.75-14.85,5.24c-4.01,3.43-6.02,8.86-6.02,16.3v24.16ZM429.14,864.27v-73.75c0-10.67,4.01-19.96,12.03-27.85,7.5-7.31,16.92-10.97,28.24-10.97s20.6,3.66,28.24,10.97c8.02,7.76,12.03,17.05,12.03,27.85v65.02l-18.44,8.73h-.97v-73.75c0-7.44-2.04-12.87-6.11-16.3-4.01-3.49-8.93-5.24-14.75-5.24s-10.77,1.75-14.85,5.24c-4.01,3.43-6.02,8.86-6.02,16.3v65.02l-18.44,8.73h-.97ZM547.8,826.14l18.44-8.73h.97v7.76c0,7.25,2.1,12.74,6.31,16.5,4.01,3.56,8.86,5.34,14.56,5.34,6.6,0,11.74-2.1,15.43-6.31,3.88-4.4,5.82-9.19,5.82-14.36,0-5.56-2.07-9.96-6.21-13.2-3.56-2.78-8.6-4.17-15.14-4.17-11.51,0-20.6-2.52-27.27-7.57-5.89-4.4-8.83-11.22-8.83-20.48s4.11-16.43,12.32-22.32c6.4-4.59,14.36-6.89,23.87-6.89s17.05,2.85,23.77,8.54c5.18,4.46,8.38,9.64,9.61,15.53l-18.44,8.73h-.97v-2.81c0-3.36-.97-6.24-2.91-8.64-3.11-4.01-7.54-6.02-13.29-6.02-4.59,0-8.35,1.46-11.26,4.37-2.85,2.85-4.27,6.02-4.27,9.51,0,4.14,1.75,7.44,5.24,9.9,1.94,1.36,6.08,2.04,12.42,2.04,13.13,0,23,3.01,29.6,9.02,7.18,6.53,10.77,15.04,10.77,25.52,0,8.41-3.72,16.43-11.16,24.07-7.05,7.25-16.76,10.87-29.11,10.87-11.19,0-20.6-3.11-28.24-9.32-8.02-6.53-12.03-15.49-12.03-26.88Z"/></g></svg>