<svg width="113" height="13" viewBox="0 0 113 13" fill="none" xmlns="http://www.w3.org/2000/svg">
<path d="M0.417496 10.2344V3.96484C0.417496 3.12109 0.681168 2.42773 1.20851 1.88477C1.7632 1.31836 2.48586 1.03516 3.37648 1.03516C4.18117 1.03516 4.86671 1.31836 5.43312 1.88477C5.57375 2.02539 5.67921 2.16211 5.74953 2.29492C5.83937 2.1582 5.94875 2.02734 6.07765 1.90234C6.6675 1.32422 7.34914 1.03516 8.12257 1.03516C8.99757 1.03516 9.72023 1.31836 10.2905 1.88477C10.8179 2.4082 11.0816 3.10156 11.0816 3.96484V9.70703L9.96828 10.2344H9.90968V3.96484C9.90968 3.44141 9.76906 3.01758 9.48781 2.69336C9.14015 2.29102 8.68507 2.08984 8.12257 2.08984C7.56007 2.08984 7.105 2.29102 6.75734 2.69336C6.47609 3.01758 6.33546 3.44141 6.33546 3.96484V9.70703L5.22218 10.2344H5.16359V3.96484C5.16359 3.44141 5.02296 3.01758 4.74171 2.69336C4.39406 2.29102 3.93898 2.08984 3.37648 2.08984C2.81398 2.08984 2.3589 2.29102 2.01125 2.69336C1.73 3.01758 1.58937 3.44141 1.58937 3.96484V9.70703L0.476089 10.2344H0.417496ZM18.7156 7.4043V7.77344C18.7156 8.41797 18.4734 8.97852 17.9891 9.45508C17.5359 9.89648 16.9676 10.1172 16.284 10.1172C15.6082 10.1172 15.0398 9.89648 14.5789 9.45508C14.0945 8.98633 13.8523 8.42578 13.8523 7.77344V5.78125C13.8523 5.13672 14.0945 4.57617 14.5789 4.09961C15.032 3.6582 15.6004 3.4375 16.284 3.4375C16.948 3.4375 17.5164 3.6582 17.9891 4.09961C18.4734 4.55273 18.7156 5.05664 18.7156 5.61133V5.62305L15.1414 8.42383C15.2 8.55664 15.282 8.66797 15.3875 8.75781C15.6336 8.96875 15.9324 9.07422 16.284 9.07422C16.6355 9.07422 16.9324 8.96875 17.1746 8.75781C17.4207 8.54688 17.5437 8.27148 17.5437 7.93164L18.657 7.4043H18.7156ZM15.0242 7.24023L17.4734 5.25391C17.4109 5.0625 17.3133 4.91016 17.1805 4.79688C16.9344 4.58594 16.6355 4.48047 16.284 4.48047C15.9324 4.48047 15.6336 4.58594 15.3875 4.79688C15.1453 5.00391 15.0242 5.33203 15.0242 5.78125V7.24023ZM22.3653 7.77344C22.3653 8.22266 22.4864 8.55273 22.7286 8.76367C22.9747 8.9707 23.2735 9.07422 23.6251 9.07422C23.9766 9.07422 24.2735 8.9707 24.5157 8.76367C24.7618 8.55273 24.8848 8.22266 24.8848 7.77344V5.78125C24.8848 5.33203 24.7618 5.00391 24.5157 4.79688C24.2735 4.58594 23.9766 4.48047 23.6251 4.48047C23.2735 4.48047 22.9747 4.58594 22.7286 4.79688C22.4864 5.00391 22.3653 5.33203 22.3653 5.78125V7.77344ZM21.1934 7.77344V5.78125C21.1934 5.13672 21.4356 4.57617 21.92 4.09961C22.3731 3.6582 22.9415 3.4375 23.6251 3.4375C24.1407 3.4375 24.5606 3.60352 24.8848 3.93555V1.44531L25.9981 0.917969H26.0567V7.77344C26.0567 8.41797 25.8145 8.97852 25.3302 9.45508C24.877 9.89648 24.3087 10.1172 23.6251 10.1172C22.9493 10.1172 22.3809 9.89648 21.92 9.45508C21.4356 8.98633 21.1934 8.42578 21.1934 7.77344ZM29.2084 2.25977C29.0716 2.11914 29.0033 1.95117 29.0033 1.75586C29.0033 1.55664 29.0716 1.38672 29.2084 1.24609C29.3451 1.10547 29.5111 1.03516 29.7064 1.03516C29.9017 1.03516 30.0677 1.10547 30.2044 1.24609C30.3412 1.38672 30.4095 1.55664 30.4095 1.75586C30.4095 1.95117 30.3412 2.11914 30.2044 2.25977C30.0677 2.40039 29.9017 2.4707 29.7064 2.4707C29.5111 2.4707 29.3451 2.40039 29.2084 2.25977ZM29.1205 10.2344V3.84766L30.2337 3.32031H30.2923V9.70703L29.1791 10.2344H29.1205ZM37.5162 9.70703L36.403 10.2344H36.3444V9.61914C36.0319 9.95117 35.6119 10.1172 35.0846 10.1172C34.3541 10.1172 33.7858 9.89648 33.3795 9.45508C32.9733 9.01367 32.7702 8.49219 32.7702 7.89062C32.7702 7.26562 32.9909 6.73438 33.4323 6.29688C33.858 5.875 34.4088 5.66406 35.0846 5.66406C35.5651 5.66406 35.985 5.83008 36.3444 6.16211C36.3444 5.4707 36.2233 5.01562 35.9811 4.79688C35.7467 4.58594 35.4479 4.48047 35.0846 4.48047H33.6608V4.42188L34.1295 3.4375H35.0846C35.7682 3.4375 36.3366 3.6582 36.7897 4.09961C37.2741 4.57227 37.5162 5.13281 37.5162 5.78125V9.70703ZM33.9186 7.89062C33.9186 8.23828 34.0241 8.52539 34.235 8.75195C34.4381 8.9707 34.7233 9.08008 35.0905 9.08008C35.4733 9.08008 35.7702 8.96875 35.9811 8.74609C36.2155 8.49609 36.3327 8.21484 36.3327 7.90234C36.3327 7.55078 36.2116 7.26562 35.9694 7.04688C35.7272 6.82812 35.4362 6.71875 35.0963 6.71875C34.7409 6.71875 34.4557 6.83398 34.2409 7.06445C34.026 7.29492 33.9186 7.57031 33.9186 7.89062ZM45.6945 10.2344V3.96484C45.6945 3.12109 45.9582 2.42773 46.4855 1.88477C47.0402 1.31836 47.7629 1.03516 48.6535 1.03516C49.5285 1.03516 50.2512 1.31836 50.8215 1.88477C51.3488 2.4082 51.6125 3.10156 51.6125 3.96484V9.70703L50.4992 10.2344H50.4406V6.10938H46.8664V9.70703L45.7531 10.2344H45.6945ZM46.8664 5.04297H50.4406V3.96484C50.4406 3.44141 50.3 3.01758 50.0187 2.69336C49.6711 2.29102 49.216 2.08984 48.6535 2.08984C48.091 2.08984 47.6359 2.29102 47.2883 2.69336C47.007 3.01758 46.8664 3.44141 46.8664 3.96484V5.04297ZM54.3833 10.2344V5.78125C54.3833 5.13672 54.6255 4.57617 55.1098 4.09961C55.563 3.6582 56.1313 3.4375 56.8149 3.4375H57.6059V3.49609L57.1372 4.48047H56.8149C56.4634 4.48047 56.1645 4.58594 55.9184 4.79688C55.6762 5.00391 55.5552 5.33203 55.5552 5.78125C55.5552 5.78125 55.5552 7.08984 55.5552 9.70703L54.4419 10.2344H54.3833ZM60.0955 10.2344V4.62109H58.5896V4.5625L59.0642 3.55469H60.0955V1.44531L61.2087 0.917969H61.2673V3.55469H62.7732V3.61328L62.2986 4.62109H61.2673V9.70703L60.1541 10.2344H60.0955ZM71.3909 5.95703H73.0609C73.5726 5.95703 74.0276 5.75586 74.4261 5.35352C74.7073 5.06836 74.848 4.64453 74.848 4.08203C74.848 3.55859 74.7073 3.13477 74.4261 2.81055C74.0784 2.4082 73.6234 2.20703 73.0609 2.20703H71.3909V5.95703ZM70.2191 10.2344V1.44531L70.8401 1.15234H73.0609C73.9515 1.15234 74.6741 1.43555 75.2288 2.00195C75.7562 2.54102 76.0198 3.23438 76.0198 4.08203C76.0198 4.93359 75.7562 5.62695 75.2288 6.16211C74.6702 6.72852 73.9476 7.01172 73.0609 7.01172H71.3909V9.70703L70.2776 10.2344H70.2191ZM78.2047 10.2344V5.78125C78.2047 5.13672 78.4469 4.57617 78.9312 4.09961C79.3844 3.6582 79.9527 3.4375 80.6363 3.4375H81.4273V3.49609L80.9586 4.48047H80.6363C80.2848 4.48047 79.9859 4.58594 79.7398 4.79688C79.4977 5.00391 79.3766 5.33203 79.3766 5.78125C79.3766 5.78125 79.3766 7.08984 79.3766 9.70703L78.2633 10.2344H78.2047ZM83.1434 7.77344V5.78125C83.1434 5.13672 83.3856 4.57617 83.87 4.09961C84.3231 3.6582 84.8915 3.4375 85.5751 3.4375C86.2509 3.4375 86.8192 3.6582 87.2802 4.09961C87.7645 4.56836 88.0067 5.12891 88.0067 5.78125V7.77344C88.0067 8.41797 87.7645 8.97852 87.2802 9.45508C86.827 9.89648 86.2587 10.1172 85.5751 10.1172C84.8993 10.1172 84.3309 9.89648 83.87 9.45508C83.3856 8.98633 83.1434 8.42578 83.1434 7.77344ZM84.3153 7.77344C84.3153 8.22266 84.4364 8.55273 84.6786 8.76367C84.9247 8.9707 85.2235 9.07422 85.5751 9.07422C85.9266 9.07422 86.2235 8.9707 86.4657 8.76367C86.7118 8.55273 86.8348 8.22266 86.8348 7.77344V5.78125C86.8348 5.33203 86.7118 5.00391 86.4657 4.79688C86.2235 4.58594 85.9266 4.48047 85.5751 4.48047C85.2235 4.48047 84.9247 4.58594 84.6786 4.79688C84.4364 5.00391 84.3153 5.33203 84.3153 5.78125V7.77344ZM90.8654 2.25977C90.7287 2.11914 90.6603 1.95117 90.6603 1.75586C90.6603 1.55664 90.7287 1.38672 90.8654 1.24609C91.0021 1.10547 91.1681 1.03516 91.3634 1.03516C91.5587 1.03516 91.7248 1.10547 91.8615 1.24609C91.9982 1.38672 92.0666 1.55664 92.0666 1.75586C92.0666 1.95117 91.9982 2.11914 91.8615 2.25977C91.7248 2.40039 91.5587 2.4707 91.3634 2.4707C91.1681 2.4707 91.0021 2.40039 90.8654 2.25977ZM89.5177 12.6367V12.5781L90.0158 11.5117C90.1642 11.4531 90.297 11.375 90.4142 11.2773C90.6564 11.0664 90.7775 10.7383 90.7775 10.293V3.84766L91.8908 3.32031H91.9494V10.293C91.9494 10.9375 91.7072 11.498 91.2228 11.9746C90.7697 12.416 90.2013 12.6367 89.5177 12.6367ZM99.5834 7.4043V7.77344C99.5834 8.41797 99.3412 8.97852 98.8569 9.45508C98.4037 9.89648 97.8354 10.1172 97.1518 10.1172C96.476 10.1172 95.9077 9.89648 95.4467 9.45508C94.9623 8.98633 94.7202 8.42578 94.7202 7.77344V5.78125C94.7202 5.13672 94.9623 4.57617 95.4467 4.09961C95.8998 3.6582 96.4682 3.4375 97.1518 3.4375C97.8159 3.4375 98.3842 3.6582 98.8569 4.09961C99.3412 4.55273 99.5834 5.05664 99.5834 5.61133V5.62305L96.0092 8.42383C96.0678 8.55664 96.1498 8.66797 96.2553 8.75781C96.5014 8.96875 96.8002 9.07422 97.1518 9.07422C97.5034 9.07422 97.8002 8.96875 98.0424 8.75781C98.2885 8.54688 98.4116 8.27148 98.4116 7.93164L99.5248 7.4043H99.5834ZM95.892 7.24023L98.3412 5.25391C98.2787 5.0625 98.1811 4.91016 98.0483 4.79688C97.8022 4.58594 97.5034 4.48047 97.1518 4.48047C96.8002 4.48047 96.5014 4.58594 96.2553 4.79688C96.0131 5.00391 95.892 5.33203 95.892 5.78125V7.24023ZM106.925 7.4043V7.77344C106.925 8.41797 106.682 8.97852 106.198 9.45508C105.745 9.89648 105.176 10.1172 104.493 10.1172C103.817 10.1172 103.249 9.89648 102.788 9.45508C102.303 8.98633 102.061 8.42578 102.061 7.77344V5.78125C102.061 5.13281 102.303 4.57227 102.788 4.09961C103.241 3.6582 103.809 3.4375 104.493 3.4375C105.161 3.4375 105.729 3.6582 106.198 4.09961C106.682 4.55664 106.925 5.06055 106.925 5.61133V5.62305L105.811 6.15039H105.753V5.78125C105.753 5.33203 105.63 5.00391 105.384 4.79688C105.141 4.58594 104.844 4.48047 104.493 4.48047C104.141 4.48047 103.842 4.58594 103.596 4.79688C103.354 5.00391 103.233 5.33203 103.233 5.78125V7.77344C103.233 8.22266 103.354 8.55273 103.596 8.76367C103.842 8.9707 104.141 9.07422 104.493 9.07422C104.844 9.07422 105.141 8.96875 105.384 8.75781C105.63 8.54688 105.753 8.27148 105.753 7.93164L106.866 7.4043H106.925ZM110.176 10.2344V4.62109H108.67V4.5625L109.145 3.55469H110.176V1.44531L111.289 0.917969H111.348V3.55469H112.854V3.61328L112.379 4.62109H111.348V9.70703L110.234 10.2344H110.176Z" fill="white"/>
</svg>
