<?xml version="1.0" encoding="UTF-8"?><svg id="_レイヤー_2" xmlns="http://www.w3.org/2000/svg" viewBox="0 0 700 699.98"><defs><style>.cls-1{fill:#18dde9;stroke-width:0px;}</style></defs><g id="_レイヤー_5"><circle class="cls-1" cx="50" cy="50" r="50"/><circle class="cls-1" cx="650" cy="649.98" r="50"/><path class="cls-1" d="M570.78,129.93c5.76,5.76,10.62,11.49,14.67,17.17l64.23-96.28h-200.7l-74.75,112.28c63.57-21.3,116.39-113.33,196.55-33.17Z"/><path class="cls-1" d="M128.97,570.95c-5.81-5.81-10.67-11.59-14.69-17.34l-63.96,96.08h199.83l71.64-107.39c-50.52,27.21-119.32,102.15-192.82,28.65Z"/><path class="cls-1" d="M350,167.3c-75.12,0-130.85-127.09-220.44-37.5-89.97,89.97,37.51,169.01,37.51,220.48,0,47.52-109.5,122.38-52.8,203.33L374.23,163.1c-7.89,2.64-15.94,4.2-24.23,4.2Z"/><path class="cls-1" d="M585.45,147.1l-263.66,395.21c10.18-5.48,19.63-9.03,28.21-9.03,51.19,0,132.51,126.52,220.81,38.22,88.69-88.69-37.73-170.31-37.73-221.22,0-47.62,111.07-120.88,52.37-203.18Z"/></g></svg>